<svg width="36" height="36" viewBox="0 0 36 36" fill="none" xmlns="http://www.w3.org/2000/svg">
<path d="M16.5 19.5C16.925 19.5 17.2813 19.3563 17.5688 19.0688C17.8563 18.7813 18 18.425 18 18C18 17.575 17.8563 17.2188 17.5688 16.9313C17.2813 16.6438 16.925 16.5 16.5 16.5C16.075 16.5 15.7188 16.6438 15.4313 16.9313C15.1438 17.2188 15 17.575 15 18C15 18.425 15.1438 18.7813 15.4313 19.0688C15.7188 19.3563 16.075 19.5 16.5 19.5ZM10.5 31.5V28.5L19.5 27V10.3125C19.5 9.9375 19.3875 9.6 19.1625 9.3C18.9375 9 18.65 8.825 18.3 8.775L10.5 7.5V4.5L18.75 5.85C19.85 6.05 20.75 6.5625 21.45 7.3875C22.15 8.2125 22.5 9.175 22.5 10.275V29.475L10.5 31.5ZM4.5 31.5V28.5H7.5V7.5C7.5 6.65 7.79375 5.9375 8.38125 5.3625C8.96875 4.7875 9.675 4.5 10.5 4.5H25.5C26.35 4.5 27.0625 4.7875 27.6375 5.3625C28.2125 5.9375 28.5 6.65 28.5 7.5V28.5H31.5V31.5H4.5ZM10.5 28.5H25.5V7.5H10.5V28.5Z" fill="#006373"/>
</svg>
