<svg width="36" height="36" viewBox="0 0 36 36" fill="none" xmlns="http://www.w3.org/2000/svg">
<path d="M4.5 31.5V28.5H7.5V7.5C7.5 6.675 7.79375 5.96875 8.38125 5.38125C8.96875 4.79375 9.675 4.5 10.5 4.5H25.5C26.325 4.5 27.0313 4.79375 27.6188 5.38125C28.2063 5.96875 28.5 6.675 28.5 7.5V28.5H31.5V31.5H4.5ZM25.5 28.5V7.5H10.5V28.5H25.5ZM21 19.5C21.425 19.5 21.7813 19.3563 22.0688 19.0688C22.3563 18.7813 22.5 18.425 22.5 18C22.5 17.575 22.3563 17.2188 22.0688 16.9313C21.7813 16.6438 21.425 16.5 21 16.5C20.575 16.5 20.2188 16.6438 19.9313 16.9313C19.6438 17.2188 19.5 17.575 19.5 18C19.5 18.425 19.6438 18.7813 19.9313 19.0688C20.2188 19.3563 20.575 19.5 21 19.5Z" fill="#006373"/>
</svg>
